<?xml version="1.0" encoding="UTF-8" standalone="no"?>
<!-- Created with Inkscape (http://www.inkscape.org/) -->

<svg
   xmlns:dc="http://purl.org/dc/elements/1.1/"
   xmlns:cc="http://creativecommons.org/ns#"
   xmlns:rdf="http://www.w3.org/1999/02/22-rdf-syntax-ns#"
   xmlns:svg="http://www.w3.org/2000/svg"
   xmlns="http://www.w3.org/2000/svg"
   xmlns:sodipodi="http://sodipodi.sourceforge.net/DTD/sodipodi-0.dtd"
   xmlns:inkscape="http://www.inkscape.org/namespaces/inkscape"
   width="744.09448819"
   height="1052.3622047"
   id="svg2"
   version="1.1"
   inkscape:version="0.48.4 r9939"
   sodipodi:docname="New document 1">
  <defs
     id="defs4" />
  <sodipodi:namedview
     id="base"
     pagecolor="#ffffff"
     bordercolor="#666666"
     borderopacity="1.0"
     inkscape:pageopacity="0.0"
     inkscape:pageshadow="2"
     inkscape:zoom="0.35"
     inkscape:cx="375"
     inkscape:cy="520"
     inkscape:document-units="px"
     inkscape:current-layer="layer1"
     showgrid="false"
     inkscape:window-width="1247"
     inkscape:window-height="827"
     inkscape:window-x="1330"
     inkscape:window-y="408"
     inkscape:window-maximized="0" />
  <metadata
     id="metadata7">
    <rdf:RDF>
      <cc:Work
         rdf:about="">
        <dc:format>image/svg+xml</dc:format>
        <dc:type
           rdf:resource="http://purl.org/dc/dcmitype/StillImage" />
        <dc:title></dc:title>
      </cc:Work>
    </rdf:RDF>
  </metadata>
  <g
     inkscape:label="Layer 1"
     inkscape:groupmode="layer"
     id="layer1">
    <g
       style="overflow:visible"
       id="g2995"
       transform="translate(146.96628,554.96933)"
       inkscape:export-filename="C:\Users\UK917753\coggy.png"
       inkscape:export-xdpi="20.620001"
       inkscape:export-ydpi="20.620001">
      <path
         id="path2987"
         stroke-linejoin="Round"
         stroke-miterlimit="1"
         d="m 77.972998,17.5 c -34.793937,0 -62.999999,28.206062 -62.999999,63 0,34.79394 28.206062,63 62.999999,63 34.793942,0 63.000012,-28.20606 63.000012,-63 0,-34.793938 -28.20607,-63 -63.000012,-63 z m 3.1e-5,-17 0.622444,0.007875 0.01717,0.7979868 c 0.305245,4.4320767 3.702805,8.1774223 8.277146,8.7606472 4.553993,0.580635 8.76538,-2.1651999 10.191627,-6.3473758 l 0.240806,-0.8429262 0.519051,0.1266613 0.314179,0.085015 -0.195343,0.8567526 c -0.76397,4.3521395 1.604682,8.7866411 5.875481,10.4707591 4.27082,1.684121 9.02866,0.05983 11.4408,-3.642374 l 0.44063,-0.757126 0.15034,0.07933 0.37811,0.21137 -0.39529,0.7787 c -1.79909,4.035847 -0.57955,8.913145 3.1537,11.585005 3.73326,2.671852 8.74323,2.25296 11.98304,-0.751772 l 0.60071,-0.616247 0.5975,0.556217 -0.56382,0.645473 c -2.73554,3.470106 -2.75173,8.49754 0.21063,12.004742 2.75076,3.256687 7.2234,4.200558 10.95386,2.624092 l 0.48951,-0.236282 -0.40967,0.357238 c -2.91587,2.810559 -3.806,7.294198 -1.89262,11.103623 1.91336,3.809425 6.0415,5.772556 10.03711,5.111687 l 0.24695,-0.05362 -0.22389,0.117188 c -3.48999,2.054641 -5.3993,6.207939 -4.42521,10.358093 1.04905,4.469391 5.09455,7.454231 9.51142,7.327446 l 0.8605,-0.0682 0.0161,0.140808 -0.85493,0.122421 c -4.33696,0.845909 -7.62856,4.646011 -7.67087,9.236679 -0.0423,4.59066 3.17869,8.450783 7.49934,9.37648 l 0.85895,0.139206 -0.007,0.05061 -0.86559,-0.08369 c -0.27588,-0.0127 -0.5505,-0.01321 -0.82325,-0.0019 -4.09122,0.169083 -7.75768,2.991364 -8.81346,7.163796 -1.12618,4.450582 1.09115,8.962652 5.07055,10.883352 l 0.80893,0.34133 -0.24013,0.63162 c -1.81666,4.60706 -4.05119,9.00364 -6.6569,13.14305 l -0.4101,0.62559 -0.32307,0.63186 C 127.88701,155.68864 91.363471,200 78.472815,200 63.472781,200 13.472866,140.00023 3.972634,109.49999 3.942433,109.40309 3.937103,109.30903 3.956058,109.2179 l 0.027213,-0.0786 -0.6544132,-1.72137 0.8184485,-0.33114 C 8.1547463,105.22526 10.438693,100.74654 9.378587,96.279757 8.4320649,92.291542 5.0997118,89.492744 1.2528926,89.036819 L 0.98067802,89.011368 1.2396549,88.923729 C 4.8772296,87.59185 7.4732336,84.099197 7.473236,80.000214 7.4732336,75.737274 4.6653962,72.130142 0.79824435,70.927338 L 0.5,70.842644 0.5763649,70.840444 C 4.7127017,70.669174 8.4034385,67.786652 9.416561,63.561501 10.487031,59.097187 8.2134866,54.613178 4.2103824,52.742355 l -0.8160882,-0.332401 0.2660105,-0.699718 0.8302591,0.285583 c 4.2455105,1.224945 8.9078652,-0.655975 11.0389792,-4.722214 2.13112,-4.066246 1.024868,-8.970482 -2.398212,-11.76464 l -0.696605,-0.512391 0.01982,-0.02859 0.728049,0.466347 c 3.836148,2.192909 8.810824,1.466251 11.841948,-1.981689 3.031124,-3.447941 3.114346,-8.474709 0.447956,-11.998223 l -0.552063,-0.657837 0.119732,-0.106241 0.591898,0.621372 c 3.204987,3.041857 8.209816,3.518435 11.973602,0.889761 3.763783,-2.628679 5.039418,-7.491608 3.286934,-11.54791 l -0.386589,-0.7838015 0.423031,-0.2232018 0.431549,0.7587843 c 2.375191,3.726027 7.116642,5.397565 11.403992,3.756012 4.287345,-1.641547 6.7,-6.0522661 5.979366,-10.4117875 l -0.186482,-0.857163 0.297326,-0.072554 0.237991,0.8425903 c 1.41375,4.1864176 5.61692,6.9448082 10.172638,6.3777672 4.576057,-0.5695711 7.984779,-4.3047601 8.303253,-8.7359025 L 77.588257,0.50487 z M 122.473,80 c 0,24.57667 -19.92333,44.5 -44.5,44.5 -24.576671,0 -44.5,-19.92333 -44.5,-44.5 0,-24.576671 19.923329,-44.5 44.5,-44.5 24.57667,0 44.5,19.923329 44.5,44.5 z"
         inkscape:connector-curvature="0"
         style="fill:#000000;stroke:#000000;stroke-miterlimit:1" />
    </g>
  </g>
</svg>
